<?xml version="1.0" encoding="utf-8"?>
<!-- Generator: Adobe Illustrator 21.1.0, SVG Export Plug-In . SVG Version: 6.00 Build 0)  -->
<svg version="1.1" id="Layer_1" xmlns="http://www.w3.org/2000/svg" xmlns:xlink="http://www.w3.org/1999/xlink" x="0px" y="0px"
	 viewBox="0 0 154.288 181.452" style="enable-background:new 0 0 154.288 181.452;" xml:space="preserve">
<style type="text/css">
  
 @import url('https://fonts.googleapis.com/css?family=Roboto');
  
  

	.st0{fill:#FE0000;}
	.st1{fill:#FFFFFF;}
	.st2{font-family: "Roboto"; font-weight: 500;}
	.st3{font-size:7px;}
	.st4{font-size:2px;}
	.st5{font-size:6px;}
	.st6{opacity:0.7;}
	.st7{fill:#FAB513;}
	.st8{font-family:'Arial-BoldMT';}
	.st9{font-size:72px;}
</style>
<g>
	<g>
		<g>
			
				<rect x="22.595" y="49.759" transform="matrix(0.7071 -0.7071 0.7071 0.7071 -51.162 85.1001)" class="st0" width="109.098" height="109.098"/>
		</g>
	</g>
	<g>
		<g>
			<g>
				<text transform="matrix(1 0 0 1 39.5464 75.0773)" class="st1 st2 st3">WHAT DO WE NEED</text>
			</g>
		</g>
	</g>
	<g>
		<g>
			<g>
				<text transform="matrix(1 0 0 1 39.5464 85.0802)" class="st1 st2 st3">WHAT DO WE KNOW</text>
			</g>
		</g>
	</g>
	<g>
		<g>
			<g>
				<text transform="matrix(1 0 0 1 104.5977 85.0773)" class="st1 st2 st4"> </text>
			</g>
		</g>
	</g>
	<g>
		<g>
			<g>
				<text transform="matrix(1 0 0 1 39.5464 97.0773)" class="st1 st2 st3">WHAT ARE WE MISSING</text>
			</g>
		</g>
	</g>
	<g>
		<g>
			<g>
				<text transform="matrix(1 0 0 1 39.5464 107.0802)" class="st1 st2 st3">WHAT ARE WE DOING</text>
			</g>
		</g>
	</g>
	<g>
		<g>
			<g>
				<text transform="matrix(1 0 0 1 39.5464 121.0802)" class="st1 st2 st3">WHAT CAN WE DO</text>
			</g>
		</g>
	</g>
	<g>
		<g>
			<g>
				<text transform="matrix(1 0 0 1 39.5464 131.0831)" class="st1 st2 st3">HOW CAN WE DO IT</text>
			</g>
		</g>
	</g>
	<g>
		<g>
			<g>
				<text transform="matrix(1 0 0 1 39.5464 143.0773)" class="st1 st2 st5">      </text>
			</g>
		</g>
	</g>
	<g>
		<g>
			<g>
				<text transform="matrix(1 0 0 1 48.5113 143.0773)" class="st1 st2 st3">AND WHEN</text>
			</g>
		</g>
	</g>
	<g>
		<g>
			<g>
				<text transform="matrix(1 0 0 1 39.5464 155.0773)" class="st1 st2 st5"> </text>
			</g>
		</g>
	</g>
	<g>
		<g>
			<g>
				<g>
					<g>
						<g>
							<g>
								<g class="st6">
									<g>
										<g>
											<text transform="matrix(1 0 0 1 73.603 61.7696)" class="st7 st8 st9">?</text>
										</g>
									</g>
								</g>
							</g>
						</g>
					</g>
				</g>
			</g>
		</g>
	</g>
</g>
</svg>
