<?xml version="1.0" encoding="utf-8"?>
<!-- Generator: Adobe Illustrator 21.1.0, SVG Export Plug-In . SVG Version: 6.00 Build 0)  -->
<svg version="1.1" id="Layer_1" xmlns="http://www.w3.org/2000/svg" xmlns:xlink="http://www.w3.org/1999/xlink" x="0px" y="0px"
	 viewBox="0 0 751.359 765.776" style="enable-background:new 0 0 751.359 765.776;" xml:space="preserve">
<style type="text/css">
	.st0{fill-rule:evenodd;clip-rule:evenodd;fill:#F4F3EA;}
	.st1{fill-rule:evenodd;clip-rule:evenodd;fill:#F0EFE5;}
	.st2{fill-rule:evenodd;clip-rule:evenodd;fill:#EBEAE0;}
	.st3{fill-rule:evenodd;clip-rule:evenodd;fill:#E7E6DC;}
	.st4{fill-rule:evenodd;clip-rule:evenodd;fill:#E3E3D7;}
	.st5{fill-rule:evenodd;clip-rule:evenodd;fill:#E0DFD3;}
	.st6{fill-rule:evenodd;clip-rule:evenodd;fill:#DDDCCF;}
	.st7{fill-rule:evenodd;clip-rule:evenodd;fill:#DAD9CC;}
	.st8{fill-rule:evenodd;clip-rule:evenodd;fill:#D5D5C8;}
	.st9{fill-rule:evenodd;clip-rule:evenodd;fill:#D3D2C4;}
	.st10{fill-rule:evenodd;clip-rule:evenodd;fill:#D0D0C1;}
	.st11{fill-rule:evenodd;clip-rule:evenodd;fill:#CBCBBC;}
	.st12{fill-rule:evenodd;clip-rule:evenodd;fill:#C8C7B8;}
	.st13{fill-rule:evenodd;clip-rule:evenodd;fill:#C5C5B5;}
	.st14{fill-rule:evenodd;clip-rule:evenodd;fill:#C2C2B1;}
	.st15{fill-rule:evenodd;clip-rule:evenodd;fill:#C0BFAE;}
	.st16{fill-rule:evenodd;clip-rule:evenodd;fill:#BCBCAA;}
	.st17{fill-rule:evenodd;clip-rule:evenodd;fill:#B9BAA7;}
	.st18{fill-rule:evenodd;clip-rule:evenodd;fill:#B6B7A4;}
	.st19{fill-rule:evenodd;clip-rule:evenodd;fill:#B3B4A0;}
	.st20{fill-rule:evenodd;clip-rule:evenodd;fill:#B0B29E;}
	.st21{fill-rule:evenodd;clip-rule:evenodd;fill:#AEAF9B;}
	.st22{fill-rule:evenodd;clip-rule:evenodd;fill:#F37228;}
	.st23{fill-rule:evenodd;clip-rule:evenodd;fill:#15ABAE;}
	.st24{fill-rule:evenodd;clip-rule:evenodd;fill:#2FB162;}
	.st25{fill-rule:evenodd;clip-rule:evenodd;fill:#1D79BC;}
	.st26{fill-rule:evenodd;clip-rule:evenodd;fill:#E7454A;}
	.st27{fill-rule:evenodd;clip-rule:evenodd;fill:#1479BF;}
	.st28{fill-rule:evenodd;clip-rule:evenodd;fill:#31B062;}
	.st29{fill-rule:evenodd;clip-rule:evenodd;fill:#FFFFFF;}
	.st30{fill:#EE342F;}
	.st31{font-family:'Roboto-Bold';}
	.st32{font-size:21.9775px;}
	.st33{fill:#231F20;}
	.st34{font-family:'Roboto-Medium';}
	.st35{font-size:15.9836px;}
	.st36{fill:#2C2F30;}
	.st37{font-size:34.213px;}
	.st38{fill:#0CA6AD;}
	.st39{fill:#333333;}
	.st40{fill:#1B75BC;}
	.st41{fill:#F26922;}
	.st42{fill:#EC2242;}
	.st43{fill:none;}
	.st44{font-family:'Roboto-Regular';}
	.st45{font-size:20px;}
	.st46{font-size:18.6476px;}
</style>
<g>
	<path class="st0" d="M504.296,699.466c0-24.892-20.185-45.077-45.074-45.077c-24.895,0-45.077,20.185-45.077,45.077
		c0,24.892,20.182,45.074,45.077,45.074C484.11,744.54,504.296,724.357,504.296,699.466"/>
	<path class="st1" d="M504.046,699.341c0-24.852-20.152-45.007-45.004-45.007c-24.852,0-45.007,20.155-45.007,45.007
		c0,24.852,20.155,45.004,45.007,45.004C483.894,744.344,504.046,724.193,504.046,699.341"/>
	<path class="st2" d="M503.796,699.216c0-24.812-20.121-44.934-44.934-44.934c-24.812,0-44.934,20.121-44.934,44.934
		c0,24.812,20.121,44.934,44.934,44.934C483.675,744.15,503.796,724.029,503.796,699.216"/>
	<path class="st3" d="M503.546,699.091c0-24.776-20.091-44.863-44.863-44.863c-24.773,0-44.863,20.088-44.863,44.863
		c0,24.773,20.091,44.863,44.863,44.863C483.455,743.954,503.546,723.864,503.546,699.091"/>
	<path class="st4" d="M503.295,698.967c0-24.736-20.057-44.793-44.793-44.793c-24.733,0-44.79,20.057-44.79,44.793
		c0,24.733,20.057,44.793,44.79,44.793C483.238,743.759,503.295,723.699,503.295,698.967"/>
	<path class="st5" d="M503.046,698.842c0-24.696-20.026-44.723-44.723-44.723c-24.693,0-44.72,20.026-44.72,44.723
		c0,24.696,20.027,44.72,44.72,44.72C483.019,743.561,503.046,723.538,503.046,698.842"/>
	<path class="st6" d="M502.796,698.717c0-24.656-19.993-44.652-44.649-44.652c-24.656,0-44.652,19.996-44.652,44.652
		s19.996,44.649,44.652,44.649C482.803,743.366,502.796,723.374,502.796,698.717"/>
	<path class="st7" d="M502.546,698.592c0-24.617-19.962-44.579-44.579-44.579c-24.617,0-44.579,19.962-44.579,44.579
		c0,24.617,19.962,44.579,44.579,44.579C482.584,743.171,502.546,723.209,502.546,698.592"/>
	<path class="st8" d="M502.296,698.467c0-24.577-19.932-44.509-44.509-44.509c-24.577,0-44.509,19.932-44.509,44.509
		c0,24.577,19.932,44.509,44.509,44.509C482.364,742.976,502.296,723.044,502.296,698.467"/>
	<path class="st9" d="M502.046,698.343c0-24.537-19.898-44.438-44.438-44.438c-24.537,0-44.435,19.901-44.435,44.438
		c0,24.537,19.898,44.438,44.435,44.438C482.147,742.781,502.046,722.88,502.046,698.343"/>
	<path class="st10" d="M501.796,698.218c0-24.501-19.868-44.368-44.365-44.368c-24.501,0-44.368,19.868-44.368,44.368
		c0,24.497,19.868,44.365,44.368,44.365C481.928,742.583,501.796,722.715,501.796,698.218"/>
	<path class="st11" d="M501.546,698.093c0-24.461-19.834-44.295-44.295-44.295s-44.298,19.834-44.298,44.295
		c0,24.461,19.837,44.295,44.298,44.295S501.546,722.554,501.546,698.093"/>
	<path class="st12" d="M501.295,697.968c0-24.421-19.803-44.224-44.225-44.224s-44.225,19.803-44.225,44.224
		c0,24.421,19.803,44.225,44.225,44.225S501.295,722.389,501.295,697.968"/>
	<path class="st13" d="M501.045,697.843c0-24.381-19.773-44.154-44.154-44.154c-24.381,0-44.154,19.773-44.154,44.154
		c0,24.381,19.773,44.154,44.154,44.154C481.272,741.998,501.045,722.225,501.045,697.843"/>
	<path class="st14" d="M500.796,697.719c0-24.342-19.739-44.084-44.084-44.084c-24.342,0-44.081,19.742-44.081,44.084
		c0,24.342,19.739,44.081,44.081,44.081C481.056,741.8,500.796,722.06,500.796,697.719"/>
	<path class="st15" d="M500.545,697.594c0-24.302-19.709-44.011-44.014-44.011c-24.302,0-44.011,19.709-44.011,44.011
		c0,24.302,19.709,44.011,44.011,44.011C480.837,741.604,500.545,721.896,500.545,697.594"/>
	<path class="st16" d="M500.295,697.469c0-24.265-19.678-43.94-43.94-43.94c-24.265,0-43.943,19.675-43.943,43.94
		c0,24.265,19.678,43.94,43.943,43.94C480.617,741.409,500.295,721.734,500.295,697.469"/>
	<path class="st17" d="M500.045,697.344c0-24.226-19.645-43.87-43.87-43.87c-24.226,0-43.87,19.645-43.87,43.87
		c0,24.225,19.644,43.87,43.87,43.87C480.401,741.214,500.045,721.57,500.045,697.344"/>
	<path class="st18" d="M499.795,697.22c0-24.186-19.614-43.8-43.8-43.8c-24.186,0-43.8,19.614-43.8,43.8s19.614,43.8,43.8,43.8
		C480.181,741.019,499.795,721.406,499.795,697.22"/>
	<path class="st19" d="M499.545,697.095c0-24.146-19.58-43.726-43.729-43.726c-24.146,0-43.726,19.58-43.726,43.726
		c0,24.146,19.58,43.726,43.726,43.726C479.965,740.821,499.545,721.241,499.545,697.095"/>
	<path class="st20" d="M499.295,696.97c0-24.106-19.55-43.656-43.656-43.656c-24.109,0-43.659,19.55-43.659,43.656
		c0,24.106,19.55,43.656,43.659,43.656C479.745,740.626,499.295,721.076,499.295,696.97"/>
	<path class="st21" d="M499.045,696.845c0-24.067-19.516-43.586-43.586-43.586c-24.07,0-43.586,19.519-43.586,43.586
		c0,24.067,19.516,43.586,43.586,43.586C479.529,740.431,499.045,720.912,499.045,696.845"/>
	<path class="st0" d="M391.26,508.624c0-24.889-20.185-45.074-45.077-45.074c-24.889,0-45.074,20.185-45.074,45.074
		c0,24.892,20.185,45.077,45.074,45.077C371.074,553.701,391.26,533.516,391.26,508.624"/>
	<path class="st1" d="M390.989,508.478c0-24.849-20.155-45.004-45.004-45.004c-24.852,0-45.007,20.155-45.007,45.004
		c0,24.852,20.155,45.007,45.007,45.007C370.834,553.485,390.989,533.33,390.989,508.478"/>
	<path class="st2" d="M390.717,508.332c0-24.812-20.121-44.934-44.934-44.934s-44.937,20.121-44.937,44.934
		s20.124,44.934,44.937,44.934S390.717,533.144,390.717,508.332"/>
	<path class="st3" d="M390.445,508.186c0-24.773-20.091-44.863-44.863-44.863c-24.773,0-44.863,20.091-44.863,44.863
		c0,24.773,20.091,44.863,44.863,44.863C370.355,553.049,390.445,532.958,390.445,508.186"/>
	<path class="st4" d="M390.174,508.039c0-24.733-20.057-44.79-44.793-44.79c-24.733,0-44.793,20.057-44.793,44.79
		c0,24.733,20.06,44.793,44.793,44.793C370.117,552.832,390.174,532.772,390.174,508.039"/>
	<path class="st5" d="M389.903,507.893c0-24.693-20.026-44.72-44.723-44.72c-24.693,0-44.72,20.026-44.72,44.72
		c0,24.693,20.026,44.723,44.72,44.723C369.876,552.616,389.903,532.586,389.903,507.893"/>
	<path class="st6" d="M389.631,507.747c0-24.653-19.996-44.649-44.649-44.649c-24.656,0-44.652,19.996-44.652,44.649
		c0,24.656,19.996,44.649,44.652,44.649C369.635,552.396,389.631,532.404,389.631,507.747"/>
	<path class="st7" d="M389.36,507.601c0-24.617-19.962-44.579-44.579-44.579c-24.617,0-44.579,19.962-44.579,44.579
		s19.962,44.579,44.579,44.579C369.397,552.18,389.36,532.218,389.36,507.601"/>
	<path class="st8" d="M389.088,507.455c0-24.577-19.932-44.509-44.509-44.509c-24.577,0-44.509,19.932-44.509,44.509
		s19.932,44.509,44.509,44.509C369.156,551.964,389.088,532.032,389.088,507.455"/>
	<path class="st9" d="M388.817,507.309c0-24.537-19.901-44.435-44.438-44.435c-24.537,0-44.438,19.898-44.438,44.435
		c0,24.537,19.901,44.438,44.438,44.438C368.916,551.747,388.817,531.846,388.817,507.309"/>
	<path class="st10" d="M388.545,507.163c0-24.497-19.868-44.365-44.365-44.365c-24.501,0-44.368,19.868-44.368,44.365
		s19.868,44.365,44.368,44.365C368.678,551.528,388.545,531.66,388.545,507.163"/>
	<path class="st11" d="M388.274,507.017c0-24.458-19.837-44.295-44.295-44.295c-24.461,0-44.298,19.837-44.298,44.295
		c0,24.461,19.837,44.295,44.298,44.295C368.437,551.311,388.274,531.478,388.274,507.017"/>
	<path class="st12" d="M388.002,506.871c0-24.418-19.803-44.225-44.224-44.225s-44.225,19.806-44.225,44.225
		c0,24.421,19.803,44.224,44.225,44.224S388.002,531.292,388.002,506.871"/>
	<path class="st13" d="M387.731,506.724c0-24.381-19.773-44.154-44.154-44.154c-24.381,0-44.154,19.773-44.154,44.154
		s19.773,44.154,44.154,44.154C367.958,550.879,387.731,531.106,387.731,506.724"/>
	<path class="st14" d="M387.459,506.578c0-24.342-19.739-44.081-44.084-44.081c-24.342,0-44.084,19.739-44.084,44.081
		s19.742,44.081,44.084,44.081C367.72,550.659,387.459,530.92,387.459,506.578"/>
	<path class="st15" d="M387.188,506.432c0-24.302-19.709-44.011-44.011-44.011c-24.305,0-44.014,19.709-44.014,44.011
		s19.709,44.011,44.014,44.011C367.479,550.443,387.188,530.734,387.188,506.432"/>
	<path class="st16" d="M386.916,506.286c0-24.262-19.678-43.94-43.94-43.94c-24.265,0-43.943,19.678-43.943,43.94
		c0,24.262,19.678,43.94,43.943,43.94C367.238,550.227,386.916,530.548,386.916,506.286"/>
	<path class="st17" d="M386.645,506.14c0-24.222-19.645-43.87-43.87-43.87c-24.225,0-43.87,19.648-43.87,43.87
		c0,24.222,19.645,43.87,43.87,43.87C367,550.01,386.645,530.363,386.645,506.14"/>
	<path class="st18" d="M386.374,505.994c0-24.183-19.614-43.8-43.8-43.8c-24.186,0-43.8,19.617-43.8,43.8
		c0,24.186,19.614,43.8,43.8,43.8C366.76,549.793,386.374,530.18,386.374,505.994"/>
	<path class="st19" d="M386.102,505.848c0-24.146-19.58-43.726-43.726-43.726c-24.149,0-43.729,19.58-43.729,43.726
		c0,24.146,19.58,43.726,43.729,43.726C366.522,549.574,386.102,529.994,386.102,505.848"/>
	<path class="st20" d="M385.831,505.702c0-24.106-19.55-43.656-43.656-43.656c-24.109,0-43.659,19.55-43.659,43.656
		s19.55,43.656,43.659,43.656C366.281,549.358,385.831,529.808,385.831,505.702"/>
	<path class="st21" d="M385.559,505.556c0-24.067-19.516-43.586-43.586-43.586c-24.07,0-43.586,19.519-43.586,43.586
		c0,24.067,19.516,43.586,43.586,43.586C366.043,549.142,385.559,529.622,385.559,505.556"/>
	<path class="st0" d="M277.775,317.336c0-24.892-20.185-45.077-45.077-45.077s-45.074,20.185-45.074,45.077
		s20.182,45.074,45.074,45.074S277.775,342.227,277.775,317.336"/>
	<path class="st1" d="M277.503,317.19c0-24.852-20.152-45.007-45.004-45.007c-24.852,0-45.007,20.155-45.007,45.007
		c0,24.852,20.155,45.004,45.007,45.004C257.351,362.193,277.503,342.042,277.503,317.19"/>
	<path class="st2" d="M277.232,317.043c0-24.812-20.121-44.934-44.934-44.934c-24.812,0-44.934,20.121-44.934,44.934
		c0,24.812,20.121,44.934,44.934,44.934C257.11,361.977,277.232,341.856,277.232,317.043"/>
	<path class="st3" d="M276.96,316.897c0-24.773-20.091-44.863-44.863-44.863s-44.863,20.091-44.863,44.863
		c0,24.773,20.091,44.863,44.863,44.863S276.96,341.67,276.96,316.897"/>
	<path class="st4" d="M276.689,316.751c0-24.733-20.057-44.793-44.793-44.793c-24.733,0-44.793,20.06-44.793,44.793
		c0,24.733,20.06,44.793,44.793,44.793C256.632,361.544,276.689,341.484,276.689,316.751"/>
	<path class="st5" d="M276.417,316.605c0-24.693-20.027-44.723-44.723-44.723c-24.693,0-44.72,20.03-44.72,44.723
		c0,24.696,20.026,44.72,44.72,44.72C256.391,361.325,276.417,341.301,276.417,316.605"/>
	<path class="st6" d="M276.146,316.459c0-24.656-19.993-44.652-44.649-44.652c-24.656,0-44.652,19.996-44.652,44.652
		s19.996,44.649,44.652,44.649C256.153,361.108,276.146,341.116,276.146,316.459"/>
	<path class="st7" d="M275.875,316.313c0-24.617-19.962-44.579-44.579-44.579c-24.617,0-44.579,19.962-44.579,44.579
		c0,24.617,19.962,44.579,44.579,44.579C255.912,360.892,275.875,340.929,275.875,316.313"/>
	<path class="st8" d="M275.603,316.167c0-24.577-19.932-44.509-44.509-44.509c-24.577,0-44.509,19.932-44.509,44.509
		s19.932,44.509,44.509,44.509C255.672,360.675,275.603,340.744,275.603,316.167"/>
	<path class="st9" d="M275.332,316.021c0-24.537-19.898-44.438-44.438-44.438c-24.537,0-44.435,19.901-44.435,44.438
		s19.898,44.438,44.435,44.438C255.433,360.459,275.332,340.558,275.332,316.021"/>
	<path class="st10" d="M275.06,315.874c0-24.497-19.868-44.368-44.365-44.368c-24.501,0-44.368,19.871-44.368,44.368
		c0,24.501,19.868,44.365,44.368,44.365C255.193,360.239,275.06,340.375,275.06,315.874"/>
	<path class="st11" d="M274.789,315.728c0-24.461-19.834-44.295-44.295-44.295s-44.295,19.834-44.295,44.295
		c0,24.461,19.834,44.295,44.295,44.295S274.789,340.189,274.789,315.728"/>
	<path class="st12" d="M274.517,315.582c0-24.421-19.803-44.225-44.225-44.225c-24.421,0-44.224,19.803-44.224,44.225
		c0,24.421,19.803,44.224,44.224,44.224C254.714,359.806,274.517,340.003,274.517,315.582"/>
	<path class="st13" d="M274.246,315.436c0-24.381-19.773-44.154-44.154-44.154c-24.381,0-44.154,19.773-44.154,44.154
		c0,24.381,19.773,44.154,44.154,44.154C254.473,359.59,274.246,339.817,274.246,315.436"/>
	<path class="st14" d="M273.974,315.29c0-24.342-19.739-44.084-44.084-44.084c-24.342,0-44.081,19.742-44.081,44.084
		c0,24.342,19.739,44.084,44.081,44.084C254.235,359.374,273.974,339.632,273.974,315.29"/>
	<path class="st15" d="M273.703,315.144c0-24.302-19.709-44.011-44.011-44.011c-24.305,0-44.014,19.709-44.014,44.011
		c0,24.302,19.709,44.01,44.014,44.01C253.994,359.154,273.703,339.445,273.703,315.144"/>
	<path class="st16" d="M273.432,314.998c0-24.265-19.678-43.94-43.94-43.94c-24.265,0-43.94,19.675-43.94,43.94
		c0,24.265,19.675,43.94,43.94,43.94C253.754,358.938,273.432,339.263,273.432,314.998"/>
	<path class="st17" d="M273.16,314.851c0-24.226-19.645-43.87-43.87-43.87c-24.226,0-43.87,19.645-43.87,43.87
		s19.645,43.87,43.87,43.87C253.515,358.721,273.16,339.077,273.16,314.851"/>
	<path class="st18" d="M272.889,314.705c0-24.186-19.614-43.8-43.8-43.8s-43.797,19.614-43.797,43.8s19.611,43.8,43.797,43.8
		S272.889,338.891,272.889,314.705"/>
	<path class="st19" d="M272.617,314.559c0-24.146-19.58-43.729-43.726-43.729c-24.149,0-43.729,19.583-43.729,43.729
		c0,24.146,19.58,43.726,43.729,43.726C253.037,358.286,272.617,338.705,272.617,314.559"/>
	<path class="st20" d="M272.346,314.413c0-24.106-19.55-43.656-43.656-43.656c-24.109,0-43.659,19.55-43.659,43.656
		s19.55,43.656,43.659,43.656C252.796,358.069,272.346,338.519,272.346,314.413"/>
	<path class="st21" d="M272.074,314.267c0-24.067-19.519-43.586-43.586-43.586c-24.07,0-43.586,19.519-43.586,43.586
		s19.516,43.586,43.586,43.586C252.555,357.853,272.074,338.334,272.074,314.267"/>
	<path class="st0" d="M504.746,317.336c0-24.892-20.185-45.077-45.077-45.077c-24.892,0-45.077,20.185-45.077,45.077
		s20.185,45.074,45.077,45.074C484.56,362.41,504.746,342.227,504.746,317.336"/>
	<path class="st1" d="M504.475,317.19c0-24.852-20.152-45.007-45.007-45.007c-24.852,0-45.004,20.155-45.004,45.007
		c0,24.852,20.152,45.004,45.004,45.004C484.323,362.193,504.475,342.042,504.475,317.19"/>
	<path class="st2" d="M504.203,317.043c0-24.812-20.121-44.934-44.934-44.934c-24.815,0-44.937,20.121-44.937,44.934
		c0,24.812,20.121,44.934,44.937,44.934C484.082,361.977,504.203,341.856,504.203,317.043"/>
	<path class="st3" d="M503.931,316.897c0-24.773-20.091-44.863-44.863-44.863c-24.776,0-44.863,20.091-44.863,44.863
		c0,24.773,20.088,44.863,44.863,44.863C483.841,361.761,503.931,341.67,503.931,316.897"/>
	<path class="st4" d="M503.66,316.751c0-24.733-20.057-44.793-44.793-44.793c-24.736,0-44.793,20.06-44.793,44.793
		c0,24.733,20.057,44.793,44.793,44.793C483.603,361.544,503.66,341.484,503.66,316.751"/>
	<path class="st5" d="M503.389,316.605c0-24.693-20.027-44.723-44.723-44.723c-24.696,0-44.72,20.03-44.72,44.723
		c0,24.696,20.023,44.72,44.72,44.72C483.362,361.325,503.389,341.301,503.389,316.605"/>
	<path class="st6" d="M503.117,316.459c0-24.656-19.993-44.652-44.652-44.652c-24.656,0-44.649,19.996-44.649,44.652
		s19.993,44.649,44.649,44.649C483.124,361.108,503.117,341.116,503.117,316.459"/>
	<path class="st7" d="M502.846,316.313c0-24.617-19.962-44.579-44.579-44.579s-44.579,19.962-44.579,44.579
		c0,24.617,19.962,44.579,44.579,44.579S502.846,340.929,502.846,316.313"/>
	<path class="st8" d="M502.574,316.167c0-24.577-19.932-44.509-44.509-44.509c-24.577,0-44.509,19.932-44.509,44.509
		s19.932,44.509,44.509,44.509C482.642,360.675,502.574,340.744,502.574,316.167"/>
	<path class="st9" d="M502.303,316.021c0-24.537-19.898-44.438-44.438-44.438c-24.537,0-44.438,19.901-44.438,44.438
		s19.901,44.438,44.438,44.438C482.405,360.459,502.303,340.558,502.303,316.021"/>
	<path class="st10" d="M502.031,315.874c0-24.497-19.867-44.368-44.368-44.368c-24.497,0-44.365,19.871-44.365,44.368
		c0,24.501,19.868,44.365,44.365,44.365C482.164,360.239,502.031,340.375,502.031,315.874"/>
	<path class="st11" d="M501.76,315.728c0-24.461-19.834-44.295-44.295-44.295s-44.298,19.834-44.298,44.295
		c0,24.461,19.837,44.295,44.298,44.295S501.76,340.189,501.76,315.728"/>
	<path class="st12" d="M501.488,315.582c0-24.421-19.803-44.225-44.224-44.225c-24.421,0-44.225,19.803-44.225,44.225
		c0,24.421,19.803,44.224,44.225,44.224C481.685,359.806,501.488,340.003,501.488,315.582"/>
	<path class="st13" d="M501.217,315.436c0-24.381-19.773-44.154-44.154-44.154c-24.381,0-44.154,19.773-44.154,44.154
		c0,24.381,19.773,44.154,44.154,44.154C481.444,359.59,501.217,339.817,501.217,315.436"/>
	<path class="st14" d="M500.945,315.29c0-24.342-19.739-44.084-44.084-44.084c-24.342,0-44.084,19.742-44.084,44.084
		c0,24.342,19.742,44.084,44.084,44.084C481.206,359.374,500.945,339.632,500.945,315.29"/>
	<path class="st15" d="M500.674,315.144c0-24.302-19.709-44.011-44.014-44.011c-24.302,0-44.011,19.709-44.011,44.011
		c0,24.302,19.709,44.01,44.011,44.01C480.965,359.154,500.674,339.445,500.674,315.144"/>
	<path class="st16" d="M500.402,314.998c0-24.265-19.678-43.94-43.94-43.94c-24.265,0-43.943,19.675-43.943,43.94
		c0,24.265,19.678,43.94,43.943,43.94C480.724,358.938,500.402,339.263,500.402,314.998"/>
	<path class="st17" d="M500.131,314.851c0-24.226-19.645-43.87-43.87-43.87c-24.226,0-43.87,19.645-43.87,43.87
		s19.644,43.87,43.87,43.87C480.486,358.721,500.131,339.077,500.131,314.851"/>
	<path class="st18" d="M499.86,314.705c0-24.186-19.614-43.8-43.8-43.8c-24.186,0-43.8,19.614-43.8,43.8s19.614,43.8,43.8,43.8
		C480.246,358.505,499.86,338.891,499.86,314.705"/>
	<path class="st19" d="M499.588,314.559c0-24.146-19.58-43.729-43.729-43.729c-24.146,0-43.726,19.583-43.726,43.729
		c0,24.146,19.58,43.726,43.726,43.726C480.008,358.286,499.588,338.705,499.588,314.559"/>
	<path class="st20" d="M499.316,314.413c0-24.106-19.55-43.656-43.656-43.656c-24.109,0-43.659,19.55-43.659,43.656
		s19.55,43.656,43.659,43.656C479.767,358.069,499.316,338.519,499.316,314.413"/>
	<path class="st21" d="M499.045,314.267c0-24.067-19.516-43.586-43.586-43.586c-24.07,0-43.586,19.519-43.586,43.586
		s19.516,43.586,43.586,43.586C479.529,357.853,499.045,338.334,499.045,314.267"/>
	<path class="st0" d="M731.715,317.336c0-24.892-20.185-45.077-45.074-45.077c-24.892,0-45.077,20.185-45.077,45.077
		s20.185,45.074,45.077,45.074C711.529,362.41,731.715,342.227,731.715,317.336"/>
	<path class="st1" d="M731.443,317.19c0-24.852-20.152-45.007-45.004-45.007s-45.007,20.155-45.007,45.007
		c0,24.852,20.155,45.004,45.007,45.004S731.443,342.042,731.443,317.19"/>
	<path class="st2" d="M731.172,317.043c0-24.812-20.121-44.934-44.934-44.934c-24.812,0-44.933,20.121-44.933,44.934
		c0,24.812,20.121,44.934,44.933,44.934C711.051,361.977,731.172,341.856,731.172,317.043"/>
	<path class="st3" d="M730.9,316.897c0-24.773-20.091-44.863-44.863-44.863c-24.773,0-44.863,20.091-44.863,44.863
		c0,24.773,20.091,44.863,44.863,44.863C710.81,361.761,730.9,341.67,730.9,316.897"/>
	<path class="st4" d="M730.629,316.751c0-24.733-20.057-44.793-44.793-44.793c-24.733,0-44.793,20.06-44.793,44.793
		c0,24.733,20.06,44.793,44.793,44.793C710.572,361.544,730.629,341.484,730.629,316.751"/>
	<path class="st5" d="M730.358,316.605c0-24.693-20.027-44.723-44.72-44.723c-24.696,0-44.723,20.03-44.723,44.723
		c0,24.696,20.026,44.72,44.723,44.72C710.331,361.325,730.358,341.301,730.358,316.605"/>
	<path class="st6" d="M730.086,316.459c0-24.656-19.993-44.652-44.649-44.652c-24.656,0-44.652,19.996-44.652,44.652
		s19.996,44.649,44.652,44.649C710.093,361.108,730.086,341.116,730.086,316.459"/>
	<path class="st7" d="M729.815,316.313c0-24.617-19.962-44.579-44.579-44.579c-24.617,0-44.579,19.962-44.579,44.579
		c0,24.617,19.962,44.579,44.579,44.579C709.853,360.892,729.815,340.929,729.815,316.313"/>
	<path class="st8" d="M729.544,316.167c0-24.577-19.932-44.509-44.509-44.509c-24.577,0-44.509,19.932-44.509,44.509
		s19.932,44.509,44.509,44.509C709.612,360.675,729.544,340.744,729.544,316.167"/>
	<path class="st9" d="M729.272,316.021c0-24.537-19.898-44.438-44.438-44.438c-24.537,0-44.438,19.901-44.438,44.438
		s19.901,44.438,44.438,44.438C709.374,360.459,729.272,340.558,729.272,316.021"/>
	<path class="st10" d="M729.001,315.874c0-24.497-19.868-44.368-44.368-44.368c-24.497,0-44.365,19.871-44.365,44.368
		c0,24.501,19.868,44.365,44.365,44.365C709.133,360.239,729.001,340.375,729.001,315.874"/>
	<path class="st11" d="M728.729,315.728c0-24.461-19.834-44.295-44.295-44.295c-24.461,0-44.298,19.834-44.298,44.295
		c0,24.461,19.837,44.295,44.298,44.295C708.895,360.023,728.729,340.189,728.729,315.728"/>
	<path class="st12" d="M728.458,315.582c0-24.421-19.803-44.225-44.224-44.225c-24.421,0-44.225,19.803-44.225,44.225
		c0,24.421,19.803,44.224,44.225,44.224C708.655,359.806,728.458,340.003,728.458,315.582"/>
	<path class="st13" d="M728.187,315.436c0-24.381-19.773-44.154-44.154-44.154c-24.381,0-44.154,19.773-44.154,44.154
		c0,24.381,19.773,44.154,44.154,44.154C708.414,359.59,728.187,339.817,728.187,315.436"/>
	<path class="st14" d="M727.916,315.29c0-24.342-19.739-44.084-44.084-44.084c-24.342,0-44.084,19.742-44.084,44.084
		c0,24.342,19.742,44.084,44.084,44.084C708.176,359.374,727.916,339.632,727.916,315.29"/>
	<path class="st15" d="M727.644,315.144c0-24.302-19.709-44.011-44.014-44.011c-24.302,0-44.011,19.709-44.011,44.011
		c0,24.302,19.709,44.01,44.011,44.01C707.935,359.154,727.644,339.445,727.644,315.144"/>
	<path class="st16" d="M727.373,314.998c0-24.265-19.678-43.94-43.943-43.94c-24.262,0-43.94,19.675-43.94,43.94
		c0,24.265,19.678,43.94,43.94,43.94C707.695,358.938,727.373,339.263,727.373,314.998"/>
	<path class="st17" d="M727.101,314.851c0-24.226-19.645-43.87-43.87-43.87c-24.225,0-43.87,19.645-43.87,43.87
		s19.645,43.87,43.87,43.87C707.457,358.721,727.101,339.077,727.101,314.851"/>
	<path class="st18" d="M726.83,314.705c0-24.186-19.614-43.8-43.8-43.8c-24.186,0-43.8,19.614-43.8,43.8s19.614,43.8,43.8,43.8
		C707.216,358.505,726.83,338.891,726.83,314.705"/>
	<path class="st19" d="M726.558,314.559c0-24.146-19.58-43.729-43.729-43.729c-24.146,0-43.729,19.583-43.729,43.729
		c0,24.146,19.583,43.726,43.729,43.726C706.978,358.286,726.558,338.705,726.558,314.559"/>
	<path class="st20" d="M726.287,314.413c0-24.106-19.55-43.656-43.659-43.656c-24.106,0-43.656,19.55-43.656,43.656
		s19.55,43.656,43.656,43.656C706.737,358.069,726.287,338.519,726.287,314.413"/>
	<path class="st21" d="M726.016,314.267c0-24.067-19.519-43.586-43.589-43.586c-24.067,0-43.586,19.519-43.586,43.586
		s19.519,43.586,43.586,43.586C706.497,357.853,726.016,338.334,726.016,314.267"/>
	<path class="st0" d="M618.231,508.624c0-24.889-20.185-45.074-45.077-45.074c-24.892,0-45.074,20.185-45.074,45.074
		c0,24.892,20.182,45.077,45.074,45.077C598.046,553.701,618.231,533.516,618.231,508.624"/>
	<path class="st1" d="M617.959,508.478c0-24.849-20.152-45.004-45.007-45.004c-24.849,0-45.004,20.155-45.004,45.004
		c0,24.852,20.155,45.007,45.004,45.007C597.807,553.485,617.959,533.33,617.959,508.478"/>
	<path class="st2" d="M617.688,508.332c0-24.812-20.121-44.934-44.934-44.934s-44.934,20.121-44.934,44.934
		s20.121,44.934,44.934,44.934S617.688,533.144,617.688,508.332"/>
	<path class="st3" d="M617.417,508.186c0-24.773-20.091-44.863-44.863-44.863c-24.773,0-44.863,20.091-44.863,44.863
		c0,24.773,20.091,44.863,44.863,44.863C597.326,553.049,617.417,532.958,617.417,508.186"/>
	<path class="st4" d="M617.145,508.039c0-24.733-20.057-44.79-44.793-44.79c-24.733,0-44.793,20.057-44.793,44.79
		c0,24.733,20.06,44.793,44.793,44.793C597.088,552.832,617.145,532.772,617.145,508.039"/>
	<path class="st5" d="M616.873,507.893c0-24.693-20.026-44.72-44.723-44.72c-24.693,0-44.72,20.026-44.72,44.72
		c0,24.693,20.026,44.723,44.72,44.723C596.847,552.616,616.873,532.586,616.873,507.893"/>
	<path class="st6" d="M616.602,507.747c0-24.653-19.993-44.649-44.652-44.649c-24.653,0-44.649,19.996-44.649,44.649
		c0,24.656,19.996,44.649,44.649,44.649C596.609,552.396,616.602,532.404,616.602,507.747"/>
	<path class="st7" d="M616.331,507.601c0-24.617-19.962-44.579-44.579-44.579c-24.617,0-44.579,19.962-44.579,44.579
		s19.962,44.579,44.579,44.579C596.368,552.18,616.331,532.218,616.331,507.601"/>
	<path class="st8" d="M616.059,507.455c0-24.577-19.932-44.509-44.509-44.509c-24.577,0-44.509,19.932-44.509,44.509
		s19.932,44.509,44.509,44.509C596.128,551.964,616.059,532.032,616.059,507.455"/>
	<path class="st9" d="M615.788,507.309c0-24.537-19.898-44.435-44.439-44.435c-24.537,0-44.435,19.898-44.435,44.435
		c0,24.537,19.898,44.438,44.435,44.438C595.89,551.747,615.788,531.846,615.788,507.309"/>
	<path class="st10" d="M615.517,507.163c0-24.497-19.868-44.365-44.368-44.365c-24.497,0-44.365,19.868-44.365,44.365
		s19.868,44.365,44.365,44.365C595.649,551.528,615.517,531.66,615.517,507.163"/>
	<path class="st11" d="M615.245,507.017c0-24.458-19.837-44.295-44.295-44.295c-24.461,0-44.295,19.837-44.295,44.295
		c0,24.461,19.834,44.295,44.295,44.295C595.408,551.311,615.245,531.478,615.245,507.017"/>
	<path class="st12" d="M614.974,506.871c0-24.418-19.803-44.225-44.225-44.225c-24.421,0-44.224,19.806-44.224,44.225
		c0,24.421,19.803,44.224,44.224,44.224C595.17,551.095,614.974,531.292,614.974,506.871"/>
	<path class="st13" d="M614.702,506.724c0-24.381-19.773-44.154-44.154-44.154c-24.381,0-44.154,19.773-44.154,44.154
		s19.773,44.154,44.154,44.154C594.929,550.879,614.702,531.106,614.702,506.724"/>
	<path class="st14" d="M614.431,506.578c0-24.342-19.739-44.081-44.084-44.081c-24.342,0-44.081,19.739-44.081,44.081
		s19.739,44.081,44.081,44.081C594.692,550.659,614.431,530.92,614.431,506.578"/>
	<path class="st15" d="M614.159,506.432c0-24.302-19.709-44.011-44.011-44.011c-24.305,0-44.014,19.709-44.014,44.011
		s19.709,44.011,44.014,44.011C594.45,550.443,614.159,530.734,614.159,506.432"/>
	<path class="st16" d="M613.888,506.286c0-24.262-19.678-43.94-43.94-43.94c-24.265,0-43.94,19.678-43.94,43.94
		c0,24.262,19.675,43.94,43.94,43.94C594.21,550.227,613.888,530.548,613.888,506.286"/>
	<path class="st17" d="M613.616,506.14c0-24.222-19.645-43.87-43.87-43.87s-43.87,19.648-43.87,43.87
		c0,24.222,19.644,43.87,43.87,43.87S613.616,530.363,613.616,506.14"/>
	<path class="st18" d="M613.345,505.994c0-24.183-19.614-43.8-43.8-43.8c-24.186,0-43.8,19.617-43.8,43.8
		c0,24.186,19.614,43.8,43.8,43.8C593.731,549.793,613.345,530.18,613.345,505.994"/>
	<path class="st19" d="M613.074,505.848c0-24.146-19.58-43.726-43.729-43.726c-24.146,0-43.726,19.58-43.726,43.726
		c0,24.146,19.58,43.726,43.726,43.726C593.493,549.574,613.074,529.994,613.074,505.848"/>
	<path class="st20" d="M612.802,505.702c0-24.106-19.55-43.656-43.656-43.656c-24.109,0-43.659,19.55-43.659,43.656
		s19.55,43.656,43.659,43.656C593.252,549.358,612.802,529.808,612.802,505.702"/>
	<path class="st21" d="M612.53,505.556c0-24.067-19.519-43.586-43.586-43.586c-24.07,0-43.586,19.519-43.586,43.586
		c0,24.067,19.516,43.586,43.586,43.586C593.011,549.142,612.53,529.622,612.53,505.556"/>
	<polygon class="st22" points="480.432,647.544 312.308,568.05 318.423,555.11 486.578,634.602 	"/>
	<polygon class="st22" points="429.587,647.544 597.711,568.05 591.596,555.11 423.441,634.602 	"/>
	<path class="st22" d="M385.63,696.397c0-26.942,15.366-50.303,37.81-61.794l6.146,12.943
		c-17.612,9.187-29.641,27.615-29.641,48.851c0,30.408,24.659,55.068,55.064,55.068c30.408,0,55.068-24.659,55.068-55.068
		c0-21.237-12.029-39.665-29.644-48.851l6.146-12.943c22.447,11.491,37.81,34.852,37.81,61.794
		c0,38.311-31.068,69.379-69.379,69.379C416.701,765.776,385.63,734.708,385.63,696.397"/>
	<polygon class="st23" points="316.102,456.256 486.579,375.613 480.431,362.67 309.953,443.314 	"/>
	<polyline class="st24" points="335.753,431.11 309.954,443.313 316.103,456.255 348.479,440.941 	"/>
	<path class="st24" d="M272.145,505.107c0-26.939,15.366-50.303,37.81-61.794l6.146,12.943
		c-17.612,9.187-29.641,27.615-29.641,48.851c0,30.405,24.66,55.064,55.064,55.064c30.408,0,55.067-24.659,55.067-55.064
		c0-21.237-12.029-39.665-29.644-48.851l6.146-12.943c22.444,11.491,37.81,34.852,37.81,61.794
		c0,38.311-31.068,69.379-69.379,69.379C303.216,574.486,272.145,543.418,272.145,505.107"/>
	<polygon class="st25" points="593.917,456.256 423.44,375.613 429.586,362.67 600.066,443.314 	"/>
	<polygon class="st23" points="565.592,442.854 423.441,375.611 429.587,362.669 571.741,429.911 	"/>
	<path class="st25" d="M499.117,505.107c0-26.939,15.366-50.303,37.81-61.794l6.146,12.943
		c-17.615,9.187-29.644,27.615-29.644,48.851c0,30.405,24.659,55.064,55.068,55.064c30.408,0,55.064-24.659,55.064-55.064
		c0-21.237-12.029-39.665-29.644-48.851l6.149-12.943c22.444,11.491,37.81,34.852,37.81,61.794
		c0,38.311-31.068,69.379-69.379,69.379C530.188,574.486,499.117,543.418,499.117,505.107"/>
	<path class="st23" d="M385.63,313.819c0,26.942,15.366,50.303,37.81,61.794l6.146-12.943
		c-17.612-9.187-29.641-27.615-29.641-48.851c0-30.408,24.659-55.068,55.064-55.068c30.408,0,55.068,24.66,55.068,55.068
		c0,21.237-12.029,39.665-29.644,48.851l6.146,12.943c22.447-11.491,37.81-34.852,37.81-61.794
		c0-38.311-31.068-69.379-69.379-69.379C416.701,244.44,385.63,275.508,385.63,313.819"/>
	<polygon class="st23" points="563.201,441.723 579.789,433.719 562.801,425.691 546.105,433.637 	"/>
	<polygon class="st23" points="563.146,441.697 579.734,433.693 563.057,425.811 546.362,433.76 	"/>
	<polygon class="st23" points="563.09,441.67 579.678,433.666 563.313,425.932 546.615,433.88 	"/>
	<polygon class="st23" points="563.034,441.644 579.623,433.64 563.569,426.052 546.871,434.001 	"/>
	<polygon class="st23" points="562.978,441.618 579.567,433.614 563.825,426.172 547.126,434.121 	"/>
	<polygon class="st23" points="562.923,441.591 579.511,433.587 564.081,426.292 547.383,434.241 	"/>
	<polygon class="st23" points="562.867,441.565 579.455,433.561 564.334,426.413 547.639,434.362 	"/>
	<polygon class="st23" points="562.811,441.539 579.4,433.535 564.59,426.533 547.895,434.482 	"/>
	<polygon class="st23" points="562.755,441.512 579.344,433.508 564.846,426.657 548.151,434.606 	"/>
	<polygon class="st23" points="562.7,441.486 579.288,433.482 565.102,426.777 548.404,434.726 	"/>
	<polygon class="st23" points="562.644,441.459 579.233,433.456 565.358,426.897 548.66,434.846 	"/>
	<polygon class="st23" points="562.589,441.433 579.177,433.429 565.611,427.018 548.916,434.967 	"/>
	<polygon class="st23" points="562.533,441.407 579.121,433.403 565.867,427.138 549.172,435.087 	"/>
	<polygon class="st23" points="562.477,441.381 579.066,433.377 566.123,427.258 549.428,435.207 	"/>
	<polygon class="st23" points="562.422,441.354 579.01,433.35 566.379,427.379 549.684,435.328 	"/>
	<polygon class="st23" points="562.366,441.328 578.954,433.324 566.635,427.502 549.937,435.451 	"/>
	<polygon class="st23" points="562.31,441.302 578.899,433.298 566.891,427.623 550.193,435.572 	"/>
	<polygon class="st23" points="562.254,441.275 578.843,433.271 567.147,427.743 550.449,435.692 	"/>
	<polygon class="st23" points="562.199,441.249 578.787,433.245 567.4,427.863 550.705,435.812 	"/>
	<polygon class="st23" points="562.143,441.223 578.731,433.219 567.656,427.984 550.961,435.932 	"/>
	<polygon class="st23" points="562.087,441.196 578.673,433.193 567.912,428.104 551.217,436.053 	"/>
	<polygon class="st25" points="543.073,456.256 711.197,376.762 705.082,363.822 536.927,443.314 	"/>
	<polygon class="st24" points="366.947,456.256 198.823,376.762 204.938,363.822 373.096,443.314 	"/>
	<polygon class="st26" points="532.514,167.917 700.638,247.412 694.523,260.352 526.368,180.86 	"/>
	<polygon class="st26" points="368.375,170.581 200.251,250.076 206.367,263.016 374.524,183.524 	"/>
	<path class="st0" d="M502.255,67.89c0-24.892-20.185-45.077-45.074-45.077c-24.895,0-45.077,20.185-45.077,45.077
		s20.182,45.074,45.077,45.074C482.069,112.964,502.255,92.782,502.255,67.89"/>
	<path class="st1" d="M502.005,67.765c0-24.852-20.152-45.007-45.004-45.007c-24.852,0-45.007,20.155-45.007,45.007
		c0,24.852,20.155,45.004,45.007,45.004C481.853,112.769,502.005,92.617,502.005,67.765"/>
	<path class="st2" d="M501.755,67.64c0-24.812-20.121-44.934-44.934-44.934c-24.812,0-44.934,20.121-44.934,44.934
		s20.121,44.934,44.934,44.934C481.633,112.574,501.755,92.452,501.755,67.64"/>
	<path class="st3" d="M501.505,67.515c0-24.773-20.091-44.863-44.863-44.863c-24.773,0-44.863,20.091-44.863,44.863
		s20.091,44.863,44.863,44.863C481.414,112.379,501.505,92.288,501.505,67.515"/>
	<path class="st4" d="M501.254,67.391c0-24.736-20.057-44.793-44.793-44.793c-24.733,0-44.793,20.057-44.793,44.793
		c0,24.733,20.06,44.793,44.793,44.793C481.197,112.183,501.254,92.123,501.254,67.391"/>
	<path class="st5" d="M501.004,67.266c0-24.696-20.026-44.723-44.72-44.723c-24.696,0-44.723,20.027-44.723,44.723
		c0,24.693,20.027,44.72,44.723,44.72C480.978,111.985,501.004,91.959,501.004,67.266"/>
	<path class="st6" d="M500.754,67.141c0-24.656-19.993-44.649-44.649-44.649c-24.656,0-44.652,19.993-44.652,44.649
		s19.996,44.649,44.652,44.649C480.762,111.79,500.754,91.798,500.754,67.141"/>
	<path class="st7" d="M500.504,67.016c0-24.617-19.962-44.579-44.579-44.579c-24.617,0-44.579,19.962-44.579,44.579
		s19.962,44.579,44.579,44.579C480.542,111.595,500.504,91.633,500.504,67.016"/>
	<path class="st8" d="M500.254,66.891c0-24.577-19.932-44.509-44.509-44.509c-24.577,0-44.509,19.932-44.509,44.509
		s19.932,44.509,44.509,44.509C480.323,111.4,500.254,91.468,500.254,66.891"/>
	<path class="st9" d="M500.004,66.767c0-24.537-19.898-44.438-44.439-44.438c-24.537,0-44.435,19.901-44.435,44.438
		s19.898,44.438,44.435,44.438C480.106,111.205,500.004,91.304,500.004,66.767"/>
	<path class="st10" d="M499.754,66.642c0-24.501-19.868-44.368-44.365-44.368c-24.501,0-44.368,19.868-44.368,44.368
		c0,24.498,19.868,44.365,44.368,44.365C479.887,111.007,499.754,91.139,499.754,66.642"/>
	<path class="st11" d="M499.504,66.517c0-24.461-19.834-44.295-44.295-44.295c-24.461,0-44.298,19.834-44.298,44.295
		s19.837,44.295,44.298,44.295C479.67,110.812,499.504,90.978,499.504,66.517"/>
	<path class="st12" d="M499.254,66.392c0-24.421-19.803-44.225-44.225-44.225c-24.421,0-44.225,19.803-44.225,44.225
		s19.803,44.224,44.225,44.224C479.451,110.617,499.254,90.814,499.254,66.392"/>
	<path class="st13" d="M499.004,66.267c0-24.381-19.773-44.154-44.154-44.154s-44.154,19.773-44.154,44.154
		c0,24.381,19.773,44.154,44.154,44.154S499.004,90.649,499.004,66.267"/>
	<path class="st14" d="M498.754,66.143c0-24.342-19.739-44.084-44.084-44.084c-24.342,0-44.081,19.742-44.081,44.084
		s19.739,44.081,44.081,44.081C479.015,110.224,498.754,90.485,498.754,66.143"/>
	<path class="st15" d="M498.504,66.018c0-24.302-19.709-44.011-44.01-44.011c-24.305,0-44.014,19.709-44.014,44.011
		s19.709,44.011,44.014,44.011C478.795,110.029,498.504,90.32,498.504,66.018"/>
	<path class="st16" d="M498.254,65.893c0-24.265-19.675-43.94-43.94-43.94s-43.94,19.675-43.94,43.94s19.675,43.94,43.94,43.94
		S498.254,90.159,498.254,65.893"/>
	<path class="st17" d="M498.004,65.768c0-24.226-19.645-43.87-43.87-43.87c-24.225,0-43.87,19.645-43.87,43.87
		c0,24.225,19.645,43.87,43.87,43.87C478.36,109.638,498.004,89.994,498.004,65.768"/>
	<path class="st18" d="M497.754,65.644c0-24.186-19.614-43.8-43.8-43.8c-24.186,0-43.8,19.614-43.8,43.8s19.614,43.8,43.8,43.8
		C478.14,109.443,497.754,89.829,497.754,65.644"/>
	<path class="st19" d="M497.504,65.519c0-24.146-19.58-43.726-43.729-43.726c-24.146,0-43.726,19.58-43.726,43.726
		s19.58,43.726,43.726,43.726C477.924,109.245,497.504,89.665,497.504,65.519"/>
	<path class="st20" d="M497.254,65.394c0-24.106-19.55-43.656-43.656-43.656c-24.109,0-43.659,19.55-43.659,43.656
		s19.55,43.656,43.659,43.656C477.704,109.05,497.254,89.5,497.254,65.394"/>
	<path class="st21" d="M497.004,65.269c0-24.067-19.516-43.586-43.586-43.586c-24.07,0-43.586,19.519-43.586,43.586
		c0,24.07,19.516,43.586,43.586,43.586C477.488,108.855,497.004,89.339,497.004,65.269"/>
	<polygon class="st26" points="478.391,118.232 310.267,197.726 316.382,210.666 484.539,131.174 	"/>
	<polygon class="st26" points="427.546,118.232 595.67,197.726 589.555,210.666 421.397,131.174 	"/>
	<path class="st26" d="M383.589,69.379c0,26.942,15.366,50.303,37.81,61.794l6.146-12.943
		c-17.612-9.187-29.641-27.615-29.641-48.851c0-30.408,24.659-55.068,55.064-55.068c30.408,0,55.067,24.66,55.067,55.068
		c0,21.237-12.029,39.665-29.644,48.851l6.146,12.943c22.447-11.491,37.81-34.852,37.81-61.794C522.347,31.068,491.279,0,452.968,0
		C414.66,0,383.589,31.068,383.589,69.379"/>
	<path class="st27" d="M612.6,313.819c0-38.311,31.068-69.379,69.379-69.379c38.311,0,69.379,31.068,69.379,69.379
		c0,38.311-31.068,69.379-69.379,69.379C643.669,383.198,612.6,352.13,612.6,313.819 M626.915,313.819
		c0-30.408,24.659-55.068,55.064-55.068c30.408,0,55.068,24.66,55.068,55.068c0,30.408-24.659,55.067-55.068,55.067
		C651.575,368.886,626.915,344.227,626.915,313.819"/>
	<path class="st28" d="M158.662,313.819c0-38.311,31.068-69.379,69.376-69.379c38.314,0,69.382,31.068,69.382,69.379
		c0,38.311-31.068,69.379-69.382,69.379C189.73,383.198,158.662,352.13,158.662,313.819 M172.973,313.819
		c0-30.408,24.66-55.068,55.064-55.068c30.408,0,55.068,24.66,55.068,55.068c0,30.408-24.66,55.067-55.068,55.067
		C197.633,368.886,172.973,344.227,172.973,313.819"/>
</g>
<g id="G-vision">
	<path class="st29" d="M498.597,696.397c0-24.07-19.519-43.586-43.589-43.586c-24.067,0-43.586,19.516-43.586,43.586
		c0,24.067,19.519,43.586,43.586,43.586C479.078,739.983,498.597,720.464,498.597,696.397"/>
	<text transform="matrix(1 0 0 1 419.5215 702.1292)" class="st30 st31 st32">VISION</text>
</g>
<g id="G-working">
	<path class="st29" d="M725.566,313.819c0-24.07-19.519-43.586-43.586-43.586c-24.07,0-43.586,19.516-43.586,43.586
		c0,24.067,19.516,43.586,43.586,43.586C706.047,357.404,725.566,337.885,725.566,313.819"/>
	<text transform="matrix(1 0 0 1 646.459 317.3382)" class="st33 st34 st35">WORKING</text>
</g>
<g id="G-Learning">
	<path class="st29" d="M498.597,313.819c0-24.07-19.519-43.586-43.589-43.586c-24.067,0-43.586,19.516-43.586,43.586
		c0,24.067,19.519,43.586,43.586,43.586C479.078,357.404,498.597,337.885,498.597,313.819"/>
	<text transform="matrix(1 0 0 1 415.5762 317.3382)" class="st33 st34 st35">LEARNING</text>
	<g>
		<g>
			<text transform="matrix(1 0 0 1 12.1025 278.2444)" class="st36 st34 st37">02 </text>
			<text transform="matrix(1 0 0 1 66.1587 278.2444)" class="st38 st34 st37">MAP</text>
			<text transform="matrix(1 0 0 1 13.2051 470.0174)" class="st39 st34 st37">03 </text>
			<text transform="matrix(1 0 0 1 67.2588 470.0174)" class="st40 st34 st37">GAP</text>
			<text transform="matrix(1 0 0 1 13.2051 664.0867)" class="st39 st34 st37">04 </text>
			<text transform="matrix(1 0 0 1 67.2588 664.0867)"><tspan x="0" y="0" class="st41 st34 st37">P</tspan><tspan x="21.868" y="0" class="st41 st34 st37">L</tspan><tspan x="40.686" y="0" class="st41 st34 st37">AN</tspan></text>
			<text transform="matrix(1 0 0 1 13.2051 36.1893)" class="st36 st34 st37">01 </text>
			<text transform="matrix(1 0 0 1 67.2588 36.1893)"><tspan x="0" y="0" class="st42 st34 st37">ME</tspan><tspan x="49.298" y="0" class="st42 st34 st37">E</tspan><tspan x="68.951" y="0" class="st42 st34 st37">T</tspan></text>
		</g>
		<rect x="13.205" y="56.775" class="st43" width="178.618" height="51.122"/>
		<text transform="matrix(1 0 0 1 13.2049 71.775)"><tspan x="0" y="0" class="st44 st45">21 September </tspan><tspan x="0" y="24" class="st44 st45">13.00 -19.00</tspan></text>
	</g>
	<rect x="14.308" y="299.168" class="st43" width="178.618" height="51.122"/>
	<text transform="matrix(1 0 0 1 14.3075 314.1674)" class="st44 st45">1-2 November</text>
	<rect x="13.205" y="491.141" class="st43" width="178.618" height="51.122"/>
	<text transform="matrix(1 0 0 1 13.2049 506.1407)" class="st44 st45">28-30 November</text>
	<rect x="13.205" y="683.538" class="st43" width="178.618" height="48.561"/>
	<text transform="matrix(1 0 0 1 13.2049 698.5376)" class="st44 st45">to be scheduled</text>
</g>
<g id="G-Living">
	<path class="st29" d="M271.626,313.819c0-24.07-19.519-43.586-43.586-43.586c-24.07,0-43.586,19.516-43.586,43.586
		c0,24.067,19.516,43.586,43.586,43.586C252.107,357.404,271.626,337.885,271.626,313.819"/>
	<text transform="matrix(1 0 0 1 202.5137 317.3382)" class="st33 st34 st35">LIVING</text>
</g>
<g id="G-Demand">
	<path class="st29" d="M612.082,505.107c0-24.067-19.519-43.586-43.589-43.586c-24.067,0-43.586,19.519-43.586,43.586
		c0,24.067,19.519,43.586,43.586,43.586C592.563,548.693,612.082,529.174,612.082,505.107"/>
	<text transform="matrix(1 0 0 1 536.4434 509.9241)" class="st33 st34 st35">DEMAND</text>
</g>
<g id="G-Meetup">
	<path class="st29" d="M496.556,64.821c0-24.067-19.519-43.586-43.589-43.586c-24.067,0-43.586,19.519-43.586,43.586
		s19.519,43.586,43.586,43.586C477.036,108.407,496.556,88.888,496.556,64.821"/>
	<text transform="matrix(1 0 0 1 416.418 72.0433)" class="st33 st31 st46">MEETUP</text>
</g>
<g id="G-Supply">
	<path class="st29" d="M385.11,505.107c0-24.067-19.519-43.586-43.586-43.586c-24.07,0-43.586,19.519-43.586,43.586
		c0,24.067,19.516,43.586,43.586,43.586C365.591,548.693,385.11,529.174,385.11,505.107"/>
	<text transform="matrix(1 0 0 1 312.2422 510.2581)" class="st33 st34 st35">SUPPLY</text>
</g>
</svg>
